<svg width="34" height="34" viewBox="0 0 34 34" fill="none" xmlns="http://www.w3.org/2000/svg">
<path d="M30.0738 27.8431C31.819 25.7452 33.0327 23.2582 33.6124 20.5925C34.1921 17.9267 34.1207 15.1607 33.4042 12.5284C32.6877 9.89606 31.3473 7.47488 29.4962 5.46965C27.6452 3.46443 25.338 1.93415 22.7699 1.00828C20.2017 0.0824058 17.4482 -0.211825 14.7422 0.150477C12.0362 0.512778 9.45732 1.52095 7.22375 3.08972C4.99017 4.65848 3.1676 6.74167 1.91021 9.16308C0.652826 11.5845 -0.00238485 14.2729 6.52251e-06 17.0008C0.00102804 20.9664 1.39964 24.805 3.95047 27.8431L3.92617 27.8638C4.01123 27.9658 4.10844 28.0532 4.19593 28.154C4.3053 28.279 4.42317 28.3968 4.53617 28.5182C4.8748 28.8881 5.22719 29.2402 5.59336 29.5745C5.70677 29.6749 5.82019 29.7728 5.9336 29.8683C6.32245 30.2042 6.72345 30.5207 7.1366 30.8178C7.19007 30.8542 7.23868 30.9016 7.29214 30.9392V30.9246C10.1381 32.9259 13.5333 34 17.0134 34C20.4935 34 23.8887 32.9259 26.7346 30.9246V30.9392C26.7881 30.9016 26.8355 30.8542 26.8901 30.8178C27.3033 30.5199 27.7043 30.2034 28.0931 29.8683C28.2066 29.772 28.32 29.6741 28.4334 29.5745C28.7987 29.2402 29.1511 28.8881 29.4906 28.5182C29.6036 28.3968 29.7202 28.279 29.8308 28.154C29.9171 28.0532 30.0155 27.9658 30.1006 27.8626L30.0738 27.8431ZM17.0122 7.28762C18.0937 7.28762 19.1509 7.60806 20.0501 8.20841C20.9494 8.80877 21.6502 9.66208 22.0641 10.6604C22.478 11.6588 22.5863 12.7573 22.3753 13.8172C22.1643 14.877 21.6435 15.8506 20.8788 16.6147C20.114 17.3788 19.1397 17.8991 18.0789 18.11C17.0182 18.3208 15.9188 18.2126 14.9196 17.799C13.9204 17.3855 13.0664 16.6852 12.4655 15.7867C11.8647 14.8882 11.544 13.8319 11.544 12.7513C11.544 11.3022 12.1201 9.91253 13.1456 8.88789C14.171 7.86326 15.5619 7.28762 17.0122 7.28762ZM7.29943 27.8431C7.32051 26.2489 7.96892 24.7271 9.10437 23.6069C10.2398 22.4867 11.771 21.8582 13.3667 21.8574H20.6576C22.2533 21.8582 23.7845 22.4867 24.9199 23.6069C26.0554 24.7271 26.7038 26.2489 26.7249 27.8431C24.0599 30.2427 20.5996 31.5707 17.0122 31.5707C13.4247 31.5707 9.96446 30.2427 7.29943 27.8431Z" fill="#EEF0ED"/>
</svg>
