<svg width="30.000000" height="30.000000" viewBox="0 0 30 30" fill="none" xmlns="http://www.w3.org/2000/svg" xmlns:xlink="http://www.w3.org/1999/xlink">
	<desc>
			Created with Pixso.
	</desc>
	<defs>
		<clipPath id="clip19_229">
			<rect id="carbon:user-avatar-filled" rx="-0.500000" width="29.000000" height="29.000000" transform="translate(0.500000 0.500000)" fill="white" fill-opacity="0"/>
		</clipPath>
	</defs>
	<rect id="carbon:user-avatar-filled" rx="-0.500000" width="29.000000" height="29.000000" transform="translate(0.500000 0.500000)" fill="#FFFFFF" fill-opacity="0"/>
	<g clip-path="url(#clip19_229)">
		<path id="Vector" d="M25.07 23.37C26.42 21.75 27.35 19.83 27.8 17.77C28.25 15.71 28.19 13.57 27.64 11.54C27.09 9.51 26.05 7.64 24.63 6.09C23.2 4.54 21.42 3.36 19.44 2.65C17.46 1.93 15.33 1.7 13.24 1.98C11.16 2.26 9.17 3.04 7.44 4.25C5.72 5.47 4.31 7.07 3.34 8.94C2.37 10.81 1.87 12.89 1.87 15C1.87 18.06 2.95 21.02 4.92 23.37L4.9 23.38C4.96 23.46 5.04 23.53 5.11 23.61C5.19 23.7 5.28 23.79 5.37 23.89C5.63 24.17 5.9 24.45 6.19 24.7C6.27 24.78 6.36 24.86 6.45 24.93C6.75 25.19 7.06 25.43 7.38 25.66C7.42 25.69 7.45 25.73 7.5 25.76L7.5 25.75C9.69 27.29 12.31 28.12 15 28.12C17.68 28.12 20.3 27.29 22.5 25.75L22.5 25.76C22.54 25.73 22.57 25.69 22.62 25.66C22.93 25.43 23.24 25.19 23.54 24.93C23.63 24.86 23.72 24.78 23.81 24.7C24.09 24.45 24.36 24.17 24.62 23.89C24.71 23.79 24.8 23.7 24.88 23.61C24.95 23.53 25.03 23.46 25.09 23.38L25.07 23.37ZM15 7.5C15.83 7.5 16.64 7.74 17.34 8.21C18.03 8.67 18.57 9.33 18.89 10.1C19.21 10.87 19.3 11.72 19.13 12.54C18.97 13.36 18.57 14.11 17.98 14.7C17.39 15.29 16.64 15.69 15.82 15.85C15 16.01 14.15 15.93 13.38 15.61C12.61 15.29 11.95 14.75 11.49 14.06C11.02 13.36 10.78 12.55 10.78 11.71C10.78 10.6 11.22 9.52 12.01 8.73C12.8 7.94 13.88 7.5 15 7.5ZM7.5 23.37C7.52 22.14 8.02 20.96 8.89 20.1C9.77 19.23 10.95 18.75 12.18 18.75L17.81 18.75C19.04 18.75 20.22 19.23 21.1 20.1C21.97 20.96 22.47 22.14 22.49 23.37C20.43 25.22 17.76 26.25 15 26.25C12.23 26.25 9.56 25.22 7.5 23.37Z" fill="#2C2C30" fill-opacity="1.000000" fill-rule="nonzero"/>
	</g>
</svg>
